<svg width="320" height="160" viewBox="0 0 320 160" fill="none" xmlns="http://www.w3.org/2000/svg">
<path d="M241.5 22.5V138.5H88.5V22.5H241.5Z" stroke="white" stroke-opacity="0.15" stroke-width="3"/>
<mask id="path-2-inside-1_1886_14558" fill="white">
<path d="M87 140H243V160H87V140Z"/>
</mask>
<path d="M243 140H240V160H243H246V140H243ZM87 160H90V140H87H84V160H87Z" fill="white" fill-opacity="0.15" mask="url(#path-2-inside-1_1886_14558)"/>
<mask id="path-4-inside-2_1886_14558" fill="white">
<path d="M87 0H243V21H87V0Z"/>
</mask>
<path d="M243 0H240V21H243H246V0H243ZM87 21H90V0H87H84V21H87Z" fill="white" fill-opacity="0.15" mask="url(#path-4-inside-2_1886_14558)"/>
<path fill-rule="evenodd" clip-rule="evenodd" d="M243 109L155 21H243V109ZM213.054 53.5417L206.563 47.125L202.667 51.0208L213.054 61.3333L231.237 43.2292L227.341 39.3333L213.054 53.5417Z" fill="#A0DC89"/>
<path d="M143.121 100V65.954L136.045 67.752V63.402L145.267 59.4H149.037V100H143.121ZM156.7 100V95.824C159.407 93.736 161.978 91.6287 164.414 89.502C166.85 87.3753 169.016 85.268 170.91 83.18C172.844 81.0533 174.352 78.9847 175.434 76.974C176.517 74.9247 177.058 72.972 177.058 71.116C177.058 69.8013 176.826 68.5833 176.362 67.462C175.898 66.3407 175.164 65.432 174.158 64.736C173.153 64.0013 171.78 63.634 170.04 63.634C168.378 63.634 166.986 64.0013 165.864 64.736C164.782 65.4707 163.95 66.4567 163.37 67.694C162.829 68.8927 162.558 70.2267 162.558 71.696H156.932C156.971 68.912 157.57 66.5533 158.73 64.62C159.89 62.6867 161.456 61.2173 163.428 60.212C165.439 59.2067 167.682 58.704 170.156 58.704C172.747 58.704 174.99 59.1873 176.884 60.154C178.779 61.082 180.248 62.4547 181.292 64.272C182.336 66.0507 182.858 68.2353 182.858 70.826C182.858 72.682 182.491 74.538 181.756 76.394C181.022 78.2113 180.016 79.99 178.74 81.73C177.503 83.47 176.111 85.152 174.564 86.776C173.018 88.3613 171.413 89.8693 169.75 91.3C168.126 92.7307 166.56 94.026 165.052 95.186H184.134V100H156.7Z" fill="white"/>
</svg>
