<svg width="320" height="160" viewBox="0 0 320 160" fill="none" xmlns="http://www.w3.org/2000/svg">
<g clip-path="url(#clip0_2799_67198)">
<rect x="142" y="98" width="30" height="30" transform="rotate(90 142 98)" fill="#FCE9B5"/>
<rect x="142" y="65" width="30" height="30" transform="rotate(90 142 65)" fill="#95FDB8"/>
<rect x="142" y="32" width="30" height="30" transform="rotate(90 142 32)" fill="#96D87D"/>
<rect x="175" y="98" width="30" height="30" transform="rotate(90 175 98)" fill="#F8BEBF"/>
<rect x="175" y="65" width="30" height="30" transform="rotate(90 175 65)" fill="#FCE9B5"/>
<rect x="175" y="32" width="30" height="30" transform="rotate(90 175 32)" fill="#95FDB8"/>
<rect x="208" y="98" width="30" height="30" transform="rotate(90 208 98)" fill="#F26D70"/>
<rect x="208" y="65" width="30" height="30" transform="rotate(90 208 65)" fill="#F8BEBF"/>
<rect x="208" y="32" width="30" height="30" transform="rotate(90 208 32)" fill="#FCE9B5"/>
</g>
<defs>
<clipPath id="clip0_2799_67198">
<rect x="112" y="32" width="96" height="96" rx="6" fill="white"/>
</clipPath>
</defs>
</svg>
