<svg width="320" height="160" viewBox="0 0 320 160" fill="none" xmlns="http://www.w3.org/2000/svg">
<path d="M91.3 99C90.1175 99 89.1052 98.5839 88.2631 97.7516C87.421 96.9193 87 95.9188 87 94.75V69.25C87 68.0813 87.421 67.0807 88.2631 66.2484C89.1052 65.4161 90.1175 65 91.3 65H114.95C115.631 65 116.276 65.1505 116.885 65.4516C117.494 65.7526 117.996 66.1688 118.39 66.7L130 82L118.39 97.3C117.996 97.8313 117.494 98.2474 116.885 98.5484C116.276 98.8495 115.631 99 114.95 99H91.3Z" fill="#BEE0FF"/>
<path d="M155.744 96V71.178H147.134V66.6H169.94V71.178H161.372V96H155.744ZM177.322 96.504C175.558 96.504 174.102 96.224 172.954 95.664C171.806 95.076 170.952 94.306 170.392 93.354C169.86 92.374 169.594 91.296 169.594 90.12C169.594 88.832 169.916 87.698 170.56 86.718C171.232 85.738 172.226 84.968 173.542 84.408C174.886 83.848 176.566 83.568 178.582 83.568H183.832C183.832 82.532 183.692 81.678 183.412 81.006C183.132 80.306 182.698 79.788 182.11 79.452C181.522 79.116 180.738 78.948 179.758 78.948C178.694 78.948 177.784 79.186 177.028 79.662C176.3 80.11 175.852 80.81 175.684 81.762H170.182C170.322 80.25 170.812 78.948 171.652 77.856C172.52 76.736 173.654 75.868 175.054 75.252C176.482 74.636 178.064 74.328 179.8 74.328C181.788 74.328 183.51 74.664 184.966 75.336C186.422 76.008 187.542 76.974 188.326 78.234C189.11 79.494 189.502 81.048 189.502 82.896V96H184.714L184.084 92.766C183.776 93.326 183.412 93.83 182.992 94.278C182.572 94.726 182.082 95.118 181.522 95.454C180.962 95.79 180.332 96.042 179.632 96.21C178.932 96.406 178.162 96.504 177.322 96.504ZM178.666 92.136C179.394 92.136 180.038 92.01 180.598 91.758C181.186 91.478 181.69 91.114 182.11 90.666C182.53 90.19 182.852 89.658 183.076 89.07C183.328 88.454 183.496 87.796 183.58 87.096V87.054H179.254C178.386 87.054 177.672 87.166 177.112 87.39C176.58 87.586 176.188 87.88 175.936 88.272C175.684 88.664 175.558 89.112 175.558 89.616C175.558 90.176 175.684 90.638 175.936 91.002C176.188 91.366 176.552 91.646 177.028 91.842C177.504 92.038 178.05 92.136 178.666 92.136ZM203.906 105.744C201.89 105.744 200.126 105.492 198.614 104.988C197.102 104.512 195.926 103.77 195.086 102.762C194.274 101.782 193.868 100.564 193.868 99.108C193.868 98.128 194.12 97.204 194.624 96.336C195.128 95.468 195.856 94.684 196.808 93.984C197.788 93.256 199.006 92.64 200.462 92.136L202.604 94.908C201.316 95.328 200.378 95.846 199.79 96.462C199.23 97.106 198.95 97.792 198.95 98.52C198.95 99.164 199.16 99.71 199.58 100.158C200.028 100.606 200.616 100.928 201.344 101.124C202.1 101.348 202.94 101.46 203.864 101.46C204.76 101.46 205.53 101.348 206.174 101.124C206.846 100.9 207.364 100.564 207.728 100.116C208.12 99.696 208.316 99.192 208.316 98.604C208.316 97.848 208.05 97.232 207.518 96.756C206.986 96.28 205.922 95.986 204.326 95.874C202.898 95.762 201.624 95.608 200.504 95.412C199.412 95.188 198.446 94.936 197.606 94.656C196.766 94.348 196.052 94.012 195.464 93.648C194.904 93.284 194.442 92.92 194.078 92.556V91.59L198.572 86.76L202.646 88.062L197.354 93.27L198.95 90.498C199.258 90.666 199.552 90.834 199.832 91.002C200.14 91.142 200.518 91.282 200.966 91.422C201.414 91.534 202.002 91.646 202.73 91.758C203.458 91.87 204.382 91.968 205.502 92.052C207.35 92.22 208.862 92.57 210.038 93.102C211.242 93.634 212.124 94.348 212.684 95.244C213.244 96.112 213.524 97.19 213.524 98.478C213.524 99.738 213.174 100.914 212.474 102.006C211.802 103.126 210.752 104.022 209.324 104.694C207.896 105.394 206.09 105.744 203.906 105.744ZM203.906 89.742C202.142 89.742 200.616 89.406 199.328 88.734C198.068 88.034 197.088 87.11 196.388 85.962C195.716 84.786 195.38 83.484 195.38 82.056C195.38 80.628 195.716 79.34 196.388 78.192C197.088 77.016 198.068 76.078 199.328 75.378C200.616 74.678 202.142 74.328 203.906 74.328C205.698 74.328 207.224 74.678 208.484 75.378C209.772 76.078 210.752 77.016 211.424 78.192C212.096 79.34 212.432 80.628 212.432 82.056C212.432 83.484 212.096 84.786 211.424 85.962C210.752 87.11 209.772 88.034 208.484 88.734C207.224 89.406 205.698 89.742 203.906 89.742ZM203.906 85.416C204.998 85.416 205.88 85.136 206.552 84.576C207.224 84.016 207.56 83.19 207.56 82.098C207.56 81.006 207.224 80.18 206.552 79.62C205.88 79.032 204.998 78.738 203.906 78.738C202.842 78.738 201.96 79.032 201.26 79.62C200.588 80.18 200.252 81.006 200.252 82.098C200.252 83.19 200.588 84.016 201.26 84.576C201.96 85.136 202.842 85.416 203.906 85.416ZM207.434 78.864L206.51 74.832H215.204V78.192L207.434 78.864Z" fill="white"/>
</svg>
