<svg width="320" height="160" viewBox="0 0 320 160" fill="none" xmlns="http://www.w3.org/2000/svg">
<path fill-rule="evenodd" clip-rule="evenodd" d="M57 60.8001C67.6039 60.8001 76.2001 69.3962 76.2001 80.0001C76.2001 90.604 67.6039 99.2001 57 99.2001C46.3962 99.2001 37.8 90.604 37.8 80.0001C37.8 69.3962 46.3962 60.8001 57 60.8001ZM49.8 70.4001V89.6001H64.2001V84.8001H54.6V82.4001H61.8V77.6001H54.6V75.2001H64.2001V70.4001H49.8Z" fill="#8FDA1D"/>
<rect x="90" y="65.8001" width="133.2" height="28.8" rx="14.4" fill="white" stroke="#529952" stroke-width="4.8"/>
<path d="M104.4 70.6005H143.307C148.609 70.6005 152.908 74.8982 152.908 80.2001C152.908 85.5021 148.609 89.7997 143.307 89.7997H104.4C99.0981 89.7997 94.8004 85.5021 94.8004 80.2001C94.8004 74.8982 99.0981 70.6005 104.4 70.6005Z" fill="#8FDA1D" stroke="white" stroke-width="4.8"/>
<path d="M256 60.9999C266.604 61 275.2 69.5963 275.2 80.2001C275.2 90.8038 266.604 99.4002 256 99.4003C245.396 99.4003 236.8 90.8039 236.8 80.2001C236.8 69.5963 245.396 60.9999 256 60.9999ZM251.2 81.5312V72.9999H246.4V89.7997H263.2V84.9999H254.697L266.242 73.415L262.816 70.0068L251.2 81.5312Z" fill="#529952"/>
</svg>
