<svg width="320" height="160" viewBox="0 0 320 160" fill="none" xmlns="http://www.w3.org/2000/svg">
<rect x="39" y="45" width="243" height="70" rx="35" fill="white"/>
<rect x="40.75" y="46.75" width="239.5" height="66.5" rx="33.25" stroke="#1F2227" stroke-opacity="0.1" stroke-width="3.5"/>
<path d="M74 76.5L74.3572 76.5188C76.1224 76.6978 77.5 78.1876 77.5 80C77.5 81.933 75.933 83.5 74 83.5H72.25V76.5H74Z" fill="#DB2777"/>
<path fill-rule="evenodd" clip-rule="evenodd" d="M74 66C81.732 66 88 72.268 88 80C88 87.732 81.732 94 74 94C66.268 94 60 87.732 60 80C60 72.268 66.268 66 74 66ZM68.75 73V87H74L74.3606 86.9915C78.059 86.8038 81 83.7451 81 80C81 76.134 77.866 73 74 73H68.75Z" fill="#DB2777"/>
<path d="M103.932 89.5V69.9H110.484C112.761 69.9 114.637 70.3107 116.112 71.132C117.605 71.9347 118.707 73.0733 119.416 74.548C120.144 76.004 120.508 77.7213 120.508 79.7C120.508 81.6787 120.144 83.4053 119.416 84.88C118.707 86.336 117.615 87.4747 116.14 88.296C114.665 89.0987 112.78 89.5 110.484 89.5H103.932ZM107.712 86.252H110.288C111.893 86.252 113.153 85.9907 114.068 85.468C115.001 84.9453 115.664 84.1987 116.056 83.228C116.448 82.2387 116.644 81.0627 116.644 79.7C116.644 78.3187 116.448 77.1427 116.056 76.172C115.664 75.1827 115.001 74.4267 114.068 73.904C113.153 73.3813 111.893 73.12 110.288 73.12H107.712V86.252ZM123.729 89.5V75.388H127.509V89.5H123.729ZM125.633 73.456C124.961 73.456 124.401 73.26 123.953 72.868C123.524 72.4573 123.309 71.944 123.309 71.328C123.309 70.712 123.524 70.208 123.953 69.816C124.401 69.4053 124.961 69.2 125.633 69.2C126.324 69.2 126.884 69.4053 127.313 69.816C127.761 70.208 127.985 70.712 127.985 71.328C127.985 71.944 127.761 72.4573 127.313 72.868C126.884 73.26 126.324 73.456 125.633 73.456ZM136.088 89.836C134.912 89.836 133.942 89.6493 133.176 89.276C132.411 88.884 131.842 88.3707 131.468 87.736C131.114 87.0827 130.936 86.364 130.936 85.58C130.936 84.7213 131.151 83.9653 131.58 83.312C132.028 82.6587 132.691 82.1453 133.568 81.772C134.464 81.3987 135.584 81.212 136.928 81.212H140.428C140.428 80.5213 140.335 79.952 140.148 79.504C139.962 79.0373 139.672 78.692 139.28 78.468C138.888 78.244 138.366 78.132 137.712 78.132C137.003 78.132 136.396 78.2907 135.892 78.608C135.407 78.9067 135.108 79.3733 134.996 80.008H131.328C131.422 79 131.748 78.132 132.308 77.404C132.887 76.6573 133.643 76.0787 134.576 75.668C135.528 75.2573 136.583 75.052 137.74 75.052C139.066 75.052 140.214 75.276 141.184 75.724C142.155 76.172 142.902 76.816 143.424 77.656C143.947 78.496 144.208 79.532 144.208 80.764V89.5H141.016L140.596 87.344C140.391 87.7173 140.148 88.0533 139.868 88.352C139.588 88.6507 139.262 88.912 138.888 89.136C138.515 89.36 138.095 89.528 137.628 89.64C137.162 89.7707 136.648 89.836 136.088 89.836ZM136.984 86.924C137.47 86.924 137.899 86.84 138.272 86.672C138.664 86.4853 139 86.2427 139.28 85.944C139.56 85.6267 139.775 85.272 139.924 84.88C140.092 84.4693 140.204 84.0307 140.26 83.564V83.536H137.376C136.798 83.536 136.322 83.6107 135.948 83.76C135.594 83.8907 135.332 84.0867 135.164 84.348C134.996 84.6093 134.912 84.908 134.912 85.244C134.912 85.6173 134.996 85.9253 135.164 86.168C135.332 86.4107 135.575 86.5973 135.892 86.728C136.21 86.8587 136.574 86.924 136.984 86.924ZM134.632 74.184L134.296 71.692L140.428 68.192L140.876 71.076L134.632 74.184ZM147.735 89.5V75.388H151.095L151.459 77.992C151.795 77.376 152.215 76.8533 152.719 76.424C153.241 75.9947 153.829 75.6587 154.483 75.416C155.155 75.1733 155.892 75.052 156.695 75.052V79.056H155.407C154.847 79.056 154.324 79.1213 153.839 79.252C153.372 79.3827 152.961 79.5973 152.607 79.896C152.252 80.176 151.981 80.568 151.795 81.072C151.608 81.576 151.515 82.2107 151.515 82.976V89.5H147.735ZM159.276 89.5V75.388H163.056V89.5H159.276ZM161.18 73.456C160.508 73.456 159.948 73.26 159.5 72.868C159.07 72.4573 158.856 71.944 158.856 71.328C158.856 70.712 159.07 70.208 159.5 69.816C159.948 69.4053 160.508 69.2 161.18 69.2C161.87 69.2 162.43 69.4053 162.86 69.816C163.308 70.208 163.532 70.712 163.532 71.328C163.532 71.944 163.308 72.4573 162.86 72.868C162.43 73.26 161.87 73.456 161.18 73.456ZM173.539 89.836C172.195 89.836 170.982 89.528 169.899 88.912C168.835 88.2773 167.986 87.4093 167.351 86.308C166.735 85.188 166.427 83.9093 166.427 82.472C166.427 80.9973 166.735 79.7093 167.351 78.608C167.986 77.488 168.845 76.62 169.927 76.004C171.01 75.3693 172.223 75.052 173.567 75.052C174.93 75.052 176.143 75.3693 177.207 76.004C178.29 76.62 179.139 77.488 179.755 78.608C180.39 79.7093 180.707 80.988 180.707 82.444C180.707 83.9 180.39 85.188 179.755 86.308C179.139 87.4093 178.29 88.2773 177.207 88.912C176.125 89.528 174.902 89.836 173.539 89.836ZM173.539 86.56C174.174 86.56 174.734 86.4107 175.219 86.112C175.723 85.8133 176.115 85.356 176.395 84.74C176.694 84.124 176.843 83.3587 176.843 82.444C176.843 81.5293 176.694 80.7733 176.395 80.176C176.115 79.56 175.723 79.1027 175.219 78.804C174.734 78.4867 174.183 78.328 173.567 78.328C172.97 78.328 172.419 78.4867 171.915 78.804C171.411 79.1027 171.01 79.56 170.711 80.176C170.431 80.7733 170.291 81.5293 170.291 82.444C170.291 83.3587 170.431 84.124 170.711 84.74C171.01 85.356 171.402 85.8133 171.887 86.112C172.391 86.4107 172.942 86.56 173.539 86.56ZM189.733 89.836C188.445 89.836 187.325 89.6307 186.373 89.22C185.421 88.8093 184.675 88.24 184.133 87.512C183.592 86.784 183.284 85.9627 183.209 85.048H186.961C187.055 85.4027 187.213 85.7293 187.437 86.028C187.661 86.308 187.96 86.532 188.333 86.7C188.707 86.868 189.155 86.952 189.677 86.952C190.181 86.952 190.592 86.8867 190.909 86.756C191.227 86.6067 191.46 86.4107 191.609 86.168C191.777 85.9253 191.861 85.6733 191.861 85.412C191.861 85.02 191.749 84.7213 191.525 84.516C191.301 84.292 190.975 84.1147 190.545 83.984C190.116 83.8533 189.593 83.7227 188.977 83.592C188.305 83.4613 187.643 83.3027 186.989 83.116C186.355 82.9107 185.785 82.6587 185.281 82.36C184.777 82.0613 184.376 81.6787 184.077 81.212C183.779 80.7453 183.629 80.1667 183.629 79.476C183.629 78.636 183.853 77.8893 184.301 77.236C184.749 76.564 185.403 76.032 186.261 75.64C187.12 75.248 188.156 75.052 189.369 75.052C191.068 75.052 192.412 75.4347 193.401 76.2C194.391 76.9653 194.979 78.02 195.165 79.364H191.609C191.497 78.9347 191.245 78.5987 190.853 78.356C190.48 78.0947 189.976 77.964 189.341 77.964C188.669 77.964 188.156 78.0853 187.801 78.328C187.447 78.5707 187.269 78.888 187.269 79.28C187.269 79.5413 187.381 79.7747 187.605 79.98C187.848 80.1853 188.184 80.3627 188.613 80.512C189.043 80.6427 189.565 80.7733 190.181 80.904C191.264 81.128 192.216 81.3893 193.037 81.688C193.859 81.968 194.503 82.3787 194.969 82.92C195.436 83.4427 195.669 84.208 195.669 85.216C195.669 86.112 195.427 86.9147 194.941 87.624C194.456 88.3147 193.765 88.856 192.869 89.248C191.992 89.64 190.947 89.836 189.733 89.836Z" fill="#212121"/>
<path d="M243.5 85.3594L234.75 76.6094L236.609 74.75L243.5 81.6406L250.391 74.75L252.25 76.6094L243.5 85.3594Z" fill="#797979"/>
</svg>
