<svg width="320" height="160" viewBox="0 0 320 160" fill="none" xmlns="http://www.w3.org/2000/svg">
<path fill-rule="evenodd" clip-rule="evenodd" d="M57 60.8001C67.6039 60.8001 76.2001 69.3962 76.2001 80.0001C76.2001 90.604 67.6039 99.2001 57 99.2001C46.3962 99.2001 37.8 90.604 37.8 80.0001C37.8 69.3962 46.3962 60.8001 57 60.8001ZM49.8 70.4001V89.6001H64.2V84.8001H54.6V82.4001H61.8V77.6001H54.6V75.2001H64.2V70.4001H49.8Z" fill="#8FDA1D"/>
<rect x="90" y="65.8001" width="133.2" height="28.8" rx="14.4" stroke="#529952" stroke-width="4.8"/>
<path d="M97 80C97 76.134 100.134 73 104 73H133C136.866 73 140 76.134 140 80V80C140 83.866 136.866 87 133 87H104C100.134 87 97 83.866 97 80V80Z" fill="#8FDA1D"/>
<path d="M256 60.9999C266.604 61 275.2 69.5963 275.2 80.2001C275.2 90.8038 266.604 99.4002 256 99.4003C245.396 99.4003 236.8 90.8039 236.8 80.2001C236.8 69.5963 245.396 60.9999 256 60.9999ZM251.2 81.5312V72.9999H246.4V89.7997H263.2V84.9999H254.697L266.242 73.415L262.816 70.0068L251.2 81.5312Z" fill="#529952"/>
</svg>
